<?xml version="1.0" encoding="utf-8"?>
<!-- Generator: Adobe Illustrator 25.2.1, SVG Export Plug-In . SVG Version: 6.00 Build 0)  -->
<!DOCTYPE svg PUBLIC "-//W3C//DTD SVG 1.1//EN" "http://www.w3.org/Graphics/SVG/1.1/DTD/svg11.dtd" [
	<!ENTITY ns_flows "http://ns.adobe.com/Flows/1.0/">
	<!ENTITY ns_extend "http://ns.adobe.com/Extensibility/1.0/">
	<!ENTITY ns_ai "http://ns.adobe.com/AdobeIllustrator/10.0/">
	<!ENTITY ns_graphs "http://ns.adobe.com/Graphs/1.0/">
	<!ENTITY ns_vars "http://ns.adobe.com/Variables/1.0/">
	<!ENTITY ns_imrep "http://ns.adobe.com/ImageReplacement/1.0/">
	<!ENTITY ns_sfw "http://ns.adobe.com/SaveForWeb/1.0/">
	<!ENTITY ns_custom "http://ns.adobe.com/GenericCustomNamespace/1.0/">
	<!ENTITY ns_adobe_xpath "http://ns.adobe.com/XPath/1.0/">
]>
<svg version="1.1" xmlns:x="&ns_extend;" xmlns:i="&ns_ai;" xmlns:graph="&ns_graphs;"
	 xmlns="http://www.w3.org/2000/svg" xmlns:xlink="http://www.w3.org/1999/xlink" xmlns:a="http://ns.adobe.com/AdobeSVGViewerExtensions/3.0/"
	 x="0px" y="0px" width="750px" height="750px" viewBox="0 0 750 750" enable-background="new 0 0 750 750" xml:space="preserve">
<metadata>
	<sfw  xmlns="&ns_sfw;">
		<slices></slices>
		<sliceSourceBounds  bottomLeftOrigin="true" height="1746.354" width="5662.951" x="-2642.951" y="1303.646"></sliceSourceBounds>
	</sfw>
</metadata>
<g id="FILL-BACKGROUND">
	<rect fill="#FFFFFF" width="750" height="750"/>
</g>
<g id="AG-DIAGRAM">
	<g>
		<g>
			
				<line fill="none" stroke="#FB8604" stroke-width="3.25" stroke-linecap="round" stroke-linejoin="round" x1="132.5" y1="527.32" x2="134.5" y2="527.32"/>
			
				<line fill="none" stroke="#FB8604" stroke-width="3.25" stroke-linecap="round" stroke-linejoin="round" stroke-dasharray="4.0024,7.0043" x1="141.504" y1="527.32" x2="633.303" y2="527.32"/>
			
				<line fill="none" stroke="#FB8604" stroke-width="3.25" stroke-linecap="round" stroke-linejoin="round" x1="636.805" y1="527.32" x2="638.805" y2="527.32"/>
		</g>
	</g>
</g>
<g id="AG-ANIMALS">
	<g id="POLYLINE_164_">
		
			<path fill="none" stroke="#FB8604" stroke-width="2.75" stroke-linecap="round" stroke-linejoin="round" stroke-miterlimit="10" d="
			M217.759,356.049c-2.168,10.157-7.498,20.602-14.809,28.006c-4.138,4.189-9.162,7.034-14.374,9.668
			c-5.327,2.686-10.715,5.251-15.813,8.371c-4.513,2.761-8.969,5.97-11.651,10.64c-2.699,4.697-3.694,10.211-5.766,15.19
			c-2.338,5.622-4.966,11.109-7.066,16.831c-2.1,5.716-3.745,11.598-5.313,17.48c-1.669,6.257-3.101,12.583-4.613,18.88
			c-0.388,1.622-0.767,3.315-1.517,4.816c-0.567,1.135-1.67,1.768-2.343,2.811c-0.566,0.881-0.801,1.964-0.997,2.973
			c-0.556,2.84-0.726,5.77-0.85,8.654c-0.106,2.501-0.21,5.297,1.796,7.125c2.005,1.832,5.161,2.611,7.797,2.817
			c2.432,0.187,4.697-0.302,6.37-2.168c0.907-1.012,1.43-2.388,2.501-3.24c0.933-0.739,1.757-0.979,2.39-2.059
			c1.218-2.076,1.894-4.47,2.851-6.669c1.192-2.746,2.662-5.347,4-8.025c5.149-10.299,5.977-22.176,11.196-32.414
			c1.765-3.463,4.158-6.711,7.578-8.679c3.439-1.982,7.498-2.359,11.393-2.367c5.886-0.017,11.734,0.568,17.625,0.227
			c5.696-0.327,11.344-1.224,16.921-2.405c12.174-2.58,24.073-6.184,36.023-9.628c10.709-3.084,21.601-4.918,32.754-4.04
			c11.797,0.933,23.313,3.396,35.204,2.846c11.977-0.554,23.944-2.969,35.957-2.243c6.045,0.364,11.962,1.568,17.957,2.345
			c5.732,0.739,11.475,1.037,17.25,0.706c11.139-0.639,22.005-3.944,31.316-10.161c8.922-5.961,15.692-14.911,19.029-25.122
			c0.151-0.464,0.298-0.929,0.446-1.397"/>
	</g>
	<g id="POLYLINE_155_">
		
			<path fill="none" stroke="#FB8604" stroke-width="2.75" stroke-linecap="round" stroke-linejoin="round" stroke-miterlimit="10" d="
			M429.256,423.773c-0.637,12.058-1.287,24.323-3.462,36.218c-1.021,5.585-2.55,11.057-4.286,16.458
			c-1.652,5.135-4.087,10.726-4.264,16.183c-0.083,2.609,1.272,4.802,1.635,7.327c0.677,4.748-0.23,9.599,0.528,14.376
			c0.48,3.017,1.356,6.028,3.356,8.4c1.48,1.753,3.553,2.674,5.716,3.284c4.89,1.383,10.384,0.899,15.371,0.489
			c2.972-0.244,5.94-0.662,8.919-0.8c1.369-0.062,2.893,0.2,4.201-0.319c1.677-0.666,2.804-2.555,3.395-4.173
			c0.939-2.561,0.514-5.126-1.06-7.338c-1.62-2.282-4.072-4.267-6.729-5.191c-0.999-0.346-2.051-0.512-3.106-0.525
			c-1.2-0.013-2.737,0.614-3.882,0.217c-0.959-0.275-1.427-1.872-1.743-2.636c-0.395-0.966-0.637-1.974-0.735-3.011
			c-0.414-4.379,1.21-8.906,2.67-12.949c2.05-5.682,4.396-11.261,6.76-16.814c2.327-5.47,5.027-10.519,8.432-15.394
			c6.813-9.768,14.495-19.254,23.324-27.275c8.927-8.108,19.148-14.24,29.783-19.823c8.969-4.708,18.149-8.831,26.787-14.142"/>
	</g>
	<g id="POLYLINE_154_">
		
			<path fill="none" stroke="#FB8604" stroke-width="2.75" stroke-linecap="round" stroke-linejoin="round" stroke-miterlimit="10" d="
			M485.874,428.883c4.031-0.664,7.511-0.922,11.441,0.256c5.326,1.599,10.306,4.137,15.69,5.595
			c2.677,0.725,5.509,1.291,8.078,2.365c1.55,0.648,2.84,1.743,4.199,2.709c4.92,3.506,10.164,6.53,15.392,9.547
			c11.559,6.669,23.256,13.11,34.889,19.654c4.404,2.478,8.8,5.004,13.087,7.681c4.351,2.713,9.111,5.47,12.446,9.447
			c2.905,3.463,7.174,5.091,10.882,7.544c2.366,1.568,4.378,3.519,6.535,5.347c1.562,1.324,3.241,2.226,5.091,3.088
			c1.204,0.564,2.423,1.129,3.434,2.005c1.166,1.012,2.016,2.322,3.137,3.38c1.314,1.243,2.861,1.408,4.59,1.141
			c2.057-0.317,3.977-1.247,6.036-1.549c0.773-0.112,1.591-0.154,2.147,0.483c0.666,0.887,0.75,2.086,1.793,2.686
			c0.651,0.371,1.489,0.419,2.221,0.419c2.585,0,5.197-0.433,7.752-0.779c1.768-0.239,3.621-0.506,5.251-1.27
			c2.139-1.001,3.193-2.873,3.386-5.189c0.2-2.409-0.061-5.305-1.454-7.363c-1.817-2.684-5.472-4.04-8.364-5.091
			c-2.519-0.923-5.098-1.87-7.742-2.365c-0.748-0.137-1.637,0.035-2.282-0.323c-0.903-0.541-1.699-1.533-2.457-2.234
			c-1.072-0.995-2.135-2.005-3.221-2.988c-1.687-1.526-3.373-3.053-5.06-4.579c-9.865-8.931-20.067-17.607-29.368-27.133
			c-2.01-2.059-3.958-4.181-5.747-6.434c-1.724-2.174-3.144-4.583-4.917-6.715c-3.548-4.267-8.052-7.611-11.52-11.973
			c-6.689-8.423-9.143-19.188-10.761-29.607c-0.92-5.939-1.889-11.915-2.284-17.918c-0.251-3.838-0.319-8.104,1.471-11.625
			c1.195-2.351,3.236-4.148,5.505-5.435c1.775-1.008,3.726-1.766,5.706-2.249c2.306-0.566,4.435-0.487,6.776-0.606
			c2.67-0.133,5.271-0.964,7.898-1.406c2.807-0.475,5.641-0.72,8.489-0.591c5.784,0.258,11.386,1.778,17.123,2.378
			c2.41,0.25,4.813,0.235,6.929-1.072c1.712-1.058,3.094-2.578,4.554-3.944c1.614-1.51,3.518-2.601,5.245-3.967
			c2.638-2.093,5.285-5.056,6.112-8.416c0.59-2.395,0.003-4.87-1.038-7.05c-1.054-2.205-3.074-3.696-4.117-5.891
			c-0.791-1.664-1.137-3.529-1.455-5.33c-0.464-2.644-0.776-5.378-0.726-8.071c0.027-1.497,0.302-3.017-0.003-4.504
			c-0.291-1.435-0.983-2.771-1.713-4.029c-2.789-4.808-6.342-9.262-10.126-13.32C618.691,287.031,612.859,283.018,604,281"/>
	</g>
	<g id="POLYLINE_153_">
		
			<path fill="none" stroke="#FB8604" stroke-width="2.75" stroke-linecap="round" stroke-linejoin="round" stroke-miterlimit="10" d="
			M154.361,430.23c-2.437,1.497-4.82,3.046-7.543,3.979c-2.408,0.825-4.941,1.268-7.464,1.56
			c-5.698,0.658-11.492,0.683-17.205,0.246c-10.593-0.808-21.517-3.23-30.199-9.666c-4.483-3.323-8.349-7.321-12.031-11.5
			c-3.948-4.479-7.736-9.137-11.277-13.947c-1.6-2.176-3.212-4.398-4.497-6.78c-0.463-0.858-1.227-2.124-1.018-3.169
			c0.113-0.854,0.997-1.072,1.723-1.162c2.318-0.285,4.867-0.027,7.186,0.131c3.629,0.254,7.009,1.149,9.934,3.388
			c4.342,3.321,8.053,7.271,12.765,10.124c9.587,5.807,21.796,10.603,33.04,7.307c10.721-3.138,20.105-11.017,28.101-18.534
			c9.086-8.541,17.387-17.832,25.468-27.321c7.929-9.305,15.689-18.848,22.524-28.993c3.174-4.712,6.198-9.295,10.199-13.362
			c4.051-4.117,8.463-7.917,13.266-11.134c9.908-6.644,21.389-9.77,33.016-11.837c12.148-2.161,24.477-4.177,36.786-5.128
			c6.025-0.469,12.036-0.079,18.058,0.244c6.129,0.327,12.252,0.745,18.379,1.135c12.554,0.797,25.094,1.678,37.623,2.819
			c6.054,0.552,12.082,1.318,18.102,2.17c5.879,0.833,11.72,1.966,17.633,2.545c11.963,1.17,23.996-1.083,35.885-2.105
			c12.029-1.033,23.865-0.208,35.849,0.92c6.082,0.575,12.187,1.276,18.306,1.276c4.437,0,8.771-0.381,12.675-2.644
			c1.716-0.993,3.255-2.324,5.125-3.032c1.6-0.608,3.337-0.791,5.032-0.91c5.9-0.41,11.715-0.573,17.535-1.743
			c11.31-2.274,21.553-7.765,31.223-13.878c1.398-0.881,2.729-1.83,4.084-2.757"/>
	</g>
	<g id="POLYLINE_152_">
		
			<path fill="none" stroke="#FB8604" stroke-width="2.75" stroke-linecap="round" stroke-linejoin="round" stroke-miterlimit="10" d="
			M584.893,301.023c-2.995-1.16-5.804-2.532-7.718-5.204c-2.39-3.336-3.664-7.781-4.242-11.787
			c-0.326-2.255-0.082-4.487-0.013-6.753c0.056-1.832,0.177-3.65,0.713-5.418c1.014-3.346,3.579-5.855,6.303-7.906
			c2.282-1.72,5.69-4.023,8.742-3.706c3.246,0.331,5.333,4.01,6.838,6.472c2.037,3.338,3.804,6.834,5.639,10.282
			c1.546,2.911,3.388,5.339,5.316,7.985"/>
	</g>
	<g id="POLYLINE_151_">
		
			<path fill="none" stroke="#FB8604" stroke-width="2.75" stroke-linecap="round" stroke-linejoin="round" stroke-miterlimit="10" d="
			M597.463,270.094c3.54-2.876,8.008-5.077,12.531-5.814c1.537-0.25,3.312-0.331,4.235,1.154c1.396,2.251,1.124,5.77,1.019,8.264
			c-0.138,3.257-0.691,6.688-2.362,9.539"/>
	</g>
	<g id="POLYLINE_150_">
		
			<line fill="none" stroke="#FB8604" stroke-width="2.75" stroke-linecap="round" stroke-linejoin="round" stroke-miterlimit="10" x1="629.961" y1="343.961" x2="631.366" y2="380.004"/>
	</g>
	<g id="POLYLINE_149_">
		
			<line fill="none" stroke="#FB8604" stroke-width="2.75" stroke-linecap="round" stroke-linejoin="round" stroke-miterlimit="10" x1="633.51" y1="343.713" x2="660.482" y2="374.065"/>
	</g>
	<g id="POLYLINE_148_">
		
			<path fill="none" stroke="#FB8604" stroke-width="2.75" stroke-linecap="round" stroke-linejoin="round" stroke-miterlimit="10" d="
			M644.39,340.538c8.764,0.989,17.047,3.681,24.766,7.965"/>
	</g>
	<g id="POLYLINE_32_">
		
			<path fill="none" stroke="#FB8604" stroke-width="2.75" stroke-linecap="round" stroke-linejoin="round" stroke-miterlimit="10" d="
			M644.06,341.939c8.153,1.599,15.901,4.77,22.767,9.487"/>
	</g>
	<g id="POLYLINE_31_">
		
			<path fill="none" stroke="#FB8604" stroke-width="2.75" stroke-linecap="round" stroke-linejoin="round" stroke-miterlimit="10" d="
			M643.003,344.236c5.997,1.116,11.645,4.089,16.236,8.108"/>
	</g>
	<g id="POLYLINE_30_">
		
			<path fill="none" stroke="#FB8604" stroke-width="2.75" stroke-linecap="round" stroke-linejoin="round" stroke-miterlimit="10" d="
			M631.972,344.804c4.825,11.277,10.287,22.234,16.462,32.833c0.036,0.058,0.072,0.121,0.106,0.181"/>
	</g>
	<g id="POLYLINE_29_">
		
			<path fill="none" stroke="#FB8604" stroke-width="2.75" stroke-linecap="round" stroke-linejoin="round" stroke-miterlimit="10" d="
			M264.224,432.042c-2.979,5.841-5.796,11.75-8.617,17.668c-1.128,2.363-2.25,4.735-3.271,7.148
			c-0.847,2.005-1.843,4.104-2.174,6.272c-0.541,3.554,2.025,6.919,3.957,9.626c3.585,5.016,7.547,9.757,11.51,14.473
			c7.615,9.068,15.611,17.924,24.326,25.951c2.071,1.909,4.155,3.796,6.277,5.647c2.318,2.02,4.552,4.375,7.071,6.147
			c1.145,0.806,2.811,0.806,4.154,0.941c3.006,0.296,6.018,0.479,9.035,0.583c6.467,0.219,15.209,0.498,20.021-4.716
			c1.518-1.645,2.694-4.208,1.647-6.392c-1.374-2.865-5.072-3.775-7.375-5.657c-2.151-1.762-3.391-3.211-6.27-3.086
			c-2.264,0.098-4.432,0.829-6.587,1.46c-0.809,0.235-1.515,0.329-2.311,0.01c-1.269-0.508-2.327-1.635-3.283-2.565
			c-1.84-1.795-3.568-3.733-5.261-5.666c-4.343-4.966-8.772-9.863-13.014-14.915c-1.71-2.034-3.326-4.237-2.993-7.023
			c0.478-4.004,3.205-7.896,5.343-11.179c3.048-4.675,7.469-7.95,11.061-12.152c3.942-4.612,7.366-9.636,11.171-14.361
			c2.344-2.909,4.849-5.678,7.328-8.47"/>
	</g>
</g>
<g id="N-DIMS">
</g>
<g id="AG-OUTLINE">
	<g id="SPLINE_8_">
		
			<path fill="none" stroke="#FB8604" stroke-width="3.5" stroke-linecap="round" stroke-linejoin="round" stroke-miterlimit="10" d="
			M485.874,428.883c3.882-0.639,7.424-0.97,11.259,0.202c3.919,1.197,7.642,2.965,11.513,4.306
			c3.767,1.304,7.698,2.049,11.465,3.342c1.09,0.375,2.068,0.85,3.009,1.505c8.438,5.914,17.302,11.027,26.28,16.069
			c11.63,6.534,23.35,12.92,34.831,19.712c4.962,2.938,10.095,5.882,14.46,9.686c1.956,1.703,3.351,3.865,5.531,5.316
			c3.12,2.08,6.555,3.644,9.543,5.93c2.903,2.222,5.296,4.991,8.632,6.603c1.636,0.791,3.394,1.441,4.762,2.672
			c1.347,1.212,2.278,2.913,3.814,3.91c3.284,2.136,7.284-1.195,10.691-1.11c1.481,0.035,1.58,1.385,2.231,2.409
			c0.854,1.335,2.574,1.295,3.981,1.224c3.649-0.179,7.86-0.481,11.323-1.718c6.059-2.159,5.25-11.64,0.606-14.913
			c-2.761-1.947-6.185-3.092-9.372-4.127c-1.829-0.593-4.042-1.524-6.007-1.416c-0.646,0.038-0.89-0.131-1.387-0.579
			c-1.936-1.751-3.815-3.565-5.748-5.318c-9.342-8.466-18.849-16.75-27.991-25.432c-4.491-4.269-8.98-8.622-12.699-13.595
			c-2.411-3.223-4.549-6.324-7.498-9.112c-5.01-4.733-9.774-9.626-12.738-15.952c-3.242-6.917-4.742-14.601-5.948-22.097
			c-1.189-7.39-2.714-15.154-2.309-22.663c0.154-2.836,0.722-5.734,2.413-8.081c1.814-2.513,4.57-4.202,7.418-5.312
			c2.682-1.047,5.434-1.568,8.311-1.526c3.016,0.044,5.897-0.814,8.843-1.345c7.967-1.43,15.523,0.09,23.389,1.347
			c2.87,0.46,6.181,1.033,8.901-0.323c3.108-1.553,5.219-4.641,8.084-6.576c3.122-2.109,6.08-4.683,7.768-8.129
			c1.745-3.556,0.905-7.64-1.316-10.796c-0.781-1.112-1.815-2.018-2.548-3.165c-0.916-1.428-1.352-3.107-1.702-4.754
			c-0.679-3.198-1.113-6.565-1.021-9.841c0.031-1.135,0.199-2.276,0.117-3.415c-0.115-1.549-0.775-2.992-1.513-4.341
			c-1.575-2.878-3.539-5.562-5.553-8.144c-3.511-4.493-7.413-8.749-11.963-12.21c-1.164-0.881-2.364-1.718-3.596-2.503
			c-0.498-0.317-1.001-0.627-1.508-0.927c0.341-0.575,0.632-1.179,0.881-1.797c0.938-2.334,1.328-4.874,1.465-7.371
			c0.155-2.836,0.79-9.693-3.348-9.926c-2.56-0.144-5.282,0.924-7.602,1.891c-2.466,1.031-4.738,2.382-6.818,4.06
			c-1.715-3.103-3.631-7.232-6.773-9.149c-2.611-1.595-5.654-0.133-8.03,1.229c-3.149,1.805-6.378,4.306-8.133,7.554
			c-0.884,1.637-1.327,3.45-1.493,5.295c-0.093,1.035,0.233,2.607-0.547,3.3c-1.299,1.156-2.936,1.991-4.408,2.909
			c-2.867,1.78-5.775,3.494-8.739,5.106c-7.376,4.004-15.072,7.125-23.36,8.614c-3.611,0.648-7.259,1.01-10.919,1.191
			c-3.204,0.158-6.668-0.01-9.744,1.045c-2.481,0.854-4.446,2.746-6.792,3.879c-3.038,1.468-6.404,1.816-9.734,1.891
			c-8.232,0.183-16.478-0.937-24.658-1.718c-8.406-0.8-16.837-1.312-25.281-0.877c-14.506,0.741-28.988,4.015-43.538,2.32
			c-5.995-0.7-11.938-1.822-17.917-2.663c-7.115-1.004-14.266-1.732-21.425-2.359c-14.052-1.233-28.135-2.147-42.217-2.978
			c-10.537-0.627-20.91-1.389-31.423-0.2c-7.269,0.825-14.523,1.801-21.753,2.925c-7.955,1.237-15.952,2.582-23.706,4.787
			c-14.226,4.052-26.705,12.531-36.189,23.871c-3.042,3.638-5.424,7.758-8.11,11.652c-3.844,5.576-8.027,10.917-12.273,16.189
			c-9.869,12.258-20.144,24.347-31.473,35.285c-5.17,4.991-10.609,9.766-16.537,13.843c-5.442,3.74-11.504,7.127-18.124,8.083
			c-7.635,1.101-15.413-1.362-22.293-4.5c-3.589-1.639-7.068-3.569-10.257-5.899c-3.013-2.199-5.638-4.835-8.52-7.186
			c-2.81-2.291-5.899-3.569-9.509-3.962c-1.717-0.185-3.442-0.21-5.165-0.248c-1.281-0.023-2.696-0.217-3.953,0.117
			c-2.536,0.673-0.046,4.327,0.718,5.576c1.792,2.928,3.865,5.684,5.956,8.4c4.958,6.426,10.17,12.864,16.137,18.388
			c5.81,5.38,12.518,9.149,20.158,11.263c8.646,2.395,17.834,3.078,26.773,2.665c3.779-0.171,7.631-0.51,11.295-1.505
			c3.355-0.912,6.171-2.672,9.109-4.46c-3.163,7.242-6.254,14.43-8.57,21.999c-2.237,7.317-4.093,14.746-5.847,22.192
			c-0.719,3.05-1.354,6.136-2.236,9.149c-0.225,0.77-0.47,1.543-0.823,2.265c-0.634,1.295-1.934,1.995-2.588,3.257
			c-1.49,2.867-1.415,6.875-1.588,10.015c-0.163,2.984-0.576,6.586,2.061,8.66c2.46,1.932,6.238,2.776,9.314,2.557
			c3.191-0.225,4.576-2.293,6.291-4.641c0.868-1.187,2.327-1.474,3.091-2.782c1.013-1.732,1.623-3.702,2.386-5.553
			c1.248-3.025,2.818-5.878,4.297-8.795c3.348-6.603,5.031-13.768,7.061-20.841c1.932-6.732,4.123-14.411,9.697-19.1
			c5.092-4.285,11.983-4.071,18.257-3.796c6.986,0.308,13.886,0.304,20.829-0.689c16.485-2.355,32.181-7.9,48.232-12.085
			c-4.11,7.902-8.044,15.971-11.598,24.141c-1.001,2.301-2.271,4.829-2.518,7.367c-0.201,2.059,0.713,3.992,1.724,5.726
			c3.372,5.774,7.959,10.988,12.231,16.106c4.98,5.961,10.113,11.808,15.457,17.451c5.087,5.368,10.426,10.49,15.985,15.367
			c1.765,1.549,3.559,3.061,5.324,4.612c1.208,1.06,2.286,2.422,3.924,2.726c5.847,1.089,12.169,1.222,18.09,0.916
			c5.553-0.289,14.406-1.607,15.627-8.391c0.547-3.042-1.99-4.841-4.317-6.193c-1.389-0.808-2.758-1.576-3.969-2.646
			c-1.247-1.104-2.378-2.322-4.119-2.54c-3.009-0.377-5.801,0.906-8.656,1.564c-2.433,0.558-4.542-2.12-6.016-3.646
			c-4.81-4.985-9.216-10.351-13.787-15.55c-2.024-2.303-4.455-4.6-5.868-7.363c-1.556-3.042-0.184-6.313,1.275-9.12
			c1.872-3.592,3.997-7.198,6.754-10.193c2.398-2.605,5.151-4.839,7.487-7.513c5.15-5.899,9.427-12.502,14.57-18.415
			c1.162-1.337,2.348-2.657,3.528-3.975c0.436-0.489,0.462-0.683,1.147-0.698c0.533-0.015,1.065-0.027,1.6-0.048
			c1.248-0.044,2.496-0.106,3.743-0.185c4.398-0.273,8.779-0.727,13.162-1.172c8.164-0.825,16.241-1.447,24.431-0.539
			c4.564,0.51,9.081,1.356,13.629,1.972c5.238,0.708,10.527,0.997,15.81,0.764c10.713-0.471,21.16-3.238,30.379-8.793
			c-0.73,15.315-1.594,31.069-5.705,45.899c-1.938,6.988-5.026,13.888-6.122,21.076c-0.193,1.264-0.285,2.555-0.067,3.823
			c0.327,1.907,1.28,3.635,1.539,5.566c0.461,3.402-0.034,6.925,0.137,10.351c0.334,6.607,2.127,13.535,9.253,15.486
			c6.821,1.866,14.425,0.681,21.334-0.015c1.236-0.123,2.474-0.248,3.715-0.266c1.46-0.021,3.061,0.194,4.336-0.679
			c2.895-1.976,3.991-6.469,2.543-9.576c-1.466-3.144-4.753-5.893-8.07-6.88c-1.54-0.458-3.117-0.456-4.696-0.246
			c-1.322,0.171-2.243,0.269-2.908-1.054c-2.606-5.18-1.092-10.651,0.682-15.891c2.28-6.74,5.12-13.303,7.914-19.841
			c5.368-12.562,14.457-23.66,23.674-33.613C479.713,434.782,482.727,431.761,485.874,428.883"/>
	</g>
</g>
<g id="N-TEXT">
</g>
</svg>
